<svg width="1440" height="476" viewBox="0 0 1440 476" fill="none" xmlns="http://www.w3.org/2000/svg">
<rect width="1440" height="476" fill="white"/>
<rect x="104" y="58" width="360" height="360" fill="#E2E2EA"/>
<path d="M530.088 417.392C528.904 417.392 527.869 417.163 526.984 416.704C526.099 416.256 525.411 415.616 524.92 414.784C524.429 413.963 524.184 412.987 524.184 411.856C524.184 410.672 524.392 409.573 524.808 408.56C525.224 407.547 525.805 406.667 526.552 405.92C527.309 405.163 528.195 404.576 529.208 404.16C530.221 403.744 531.331 403.536 532.536 403.536C533.773 403.536 534.84 403.771 535.736 404.24C536.643 404.699 537.341 405.344 537.832 406.176C538.323 407.008 538.568 407.968 538.568 409.056C538.568 409.696 538.483 410.32 538.312 410.928C538.152 411.525 537.912 412.064 537.592 412.544C537.283 413.013 536.893 413.387 536.424 413.664C535.965 413.941 535.437 414.08 534.84 414.08C534.285 414.08 533.843 413.957 533.512 413.712C533.181 413.467 532.973 413.131 532.888 412.704C532.579 413.141 532.179 413.488 531.688 413.744C531.208 413.989 530.691 414.112 530.136 414.112C529.325 414.112 528.696 413.872 528.248 413.392C527.8 412.901 527.576 412.24 527.576 411.408C527.576 410.832 527.667 410.277 527.848 409.744C528.029 409.2 528.285 408.72 528.616 408.304C528.957 407.877 529.357 407.541 529.816 407.296C530.285 407.051 530.797 406.928 531.352 406.928C532.344 406.928 532.995 407.307 533.304 408.064L533.48 407.072H535.16L534.408 411.36C534.344 411.776 534.355 412.112 534.44 412.368C534.536 412.613 534.765 412.736 535.128 412.736C535.437 412.736 535.704 412.629 535.928 412.416C536.163 412.192 536.355 411.904 536.504 411.552C536.664 411.189 536.781 410.8 536.856 410.384C536.941 409.957 536.984 409.541 536.984 409.136C536.984 407.835 536.573 406.811 535.752 406.064C534.931 405.307 533.789 404.928 532.328 404.928C531.379 404.928 530.504 405.104 529.704 405.456C528.915 405.797 528.221 406.277 527.624 406.896C527.037 407.515 526.579 408.235 526.248 409.056C525.928 409.867 525.768 410.741 525.768 411.68C525.768 413.045 526.173 414.101 526.984 414.848C527.795 415.605 528.915 415.984 530.344 415.984C530.824 415.984 531.299 415.936 531.768 415.84C532.248 415.744 532.685 415.605 533.08 415.424L533.416 416.752C532.413 417.179 531.304 417.392 530.088 417.392ZM530.776 412.608C531.16 412.608 531.512 412.501 531.832 412.288C532.152 412.075 532.413 411.787 532.616 411.424C532.819 411.051 532.931 410.635 532.952 410.176C532.984 409.685 532.877 409.269 532.632 408.928C532.397 408.587 532.024 408.416 531.512 408.416C531.085 408.416 530.712 408.544 530.392 408.8C530.072 409.056 529.821 409.387 529.64 409.792C529.459 410.187 529.368 410.613 529.368 411.072C529.368 411.531 529.485 411.904 529.72 412.192C529.965 412.469 530.317 412.608 530.776 412.608ZM540.177 414V412.512C540.86 411.947 541.521 411.387 542.161 410.832C542.812 410.277 543.388 409.728 543.889 409.184C544.401 408.64 544.807 408.112 545.105 407.6C545.415 407.077 545.569 406.571 545.569 406.08C545.569 405.621 545.441 405.216 545.185 404.864C544.94 404.512 544.529 404.336 543.953 404.336C543.367 404.336 542.924 404.528 542.625 404.912C542.327 405.296 542.177 405.76 542.177 406.304H540.193C540.215 405.483 540.396 404.8 540.737 404.256C541.079 403.701 541.532 403.291 542.097 403.024C542.663 402.747 543.297 402.608 544.001 402.608C545.143 402.608 546.028 402.923 546.657 403.552C547.297 404.171 547.617 404.976 547.617 405.968C547.617 406.587 547.473 407.189 547.185 407.776C546.908 408.363 546.54 408.928 546.081 409.472C545.623 410.016 545.127 410.528 544.593 411.008C544.06 411.477 543.543 411.915 543.041 412.32H547.889V414H540.177ZM554.184 414.192C553.149 414.192 552.264 413.952 551.528 413.472C550.792 412.981 550.221 412.304 549.816 411.44C549.421 410.565 549.224 409.552 549.224 408.4C549.224 407.259 549.421 406.251 549.816 405.376C550.221 404.501 550.792 403.824 551.528 403.344C552.264 402.853 553.149 402.608 554.184 402.608C555.218 402.608 556.104 402.853 556.84 403.344C557.576 403.824 558.141 404.501 558.536 405.376C558.941 406.251 559.144 407.259 559.144 408.4C559.144 409.552 558.941 410.565 558.536 411.44C558.141 412.304 557.576 412.981 556.84 413.472C556.104 413.952 555.218 414.192 554.184 414.192ZM554.184 412.352C555.026 412.352 555.714 412 556.248 411.296C556.781 410.592 557.048 409.627 557.048 408.4C557.048 407.173 556.781 406.208 556.248 405.504C555.714 404.8 555.026 404.448 554.184 404.448C553.33 404.448 552.637 404.8 552.104 405.504C551.581 406.208 551.32 407.173 551.32 408.4C551.32 409.627 551.581 410.592 552.104 411.296C552.637 412 553.33 412.352 554.184 412.352ZM560.681 414V412.512C561.364 411.947 562.025 411.387 562.665 410.832C563.316 410.277 563.892 409.728 564.393 409.184C564.905 408.64 565.31 408.112 565.609 407.6C565.918 407.077 566.073 406.571 566.073 406.08C566.073 405.621 565.945 405.216 565.689 404.864C565.444 404.512 565.033 404.336 564.457 404.336C563.87 404.336 563.428 404.528 563.129 404.912C562.83 405.296 562.681 405.76 562.681 406.304H560.697C560.718 405.483 560.9 404.8 561.241 404.256C561.582 403.701 562.036 403.291 562.601 403.024C563.166 402.747 563.801 402.608 564.505 402.608C565.646 402.608 566.532 402.923 567.161 403.552C567.801 404.171 568.121 404.976 568.121 405.968C568.121 406.587 567.977 407.189 567.689 407.776C567.412 408.363 567.044 408.928 566.585 409.472C566.126 410.016 565.63 410.528 565.097 411.008C564.564 411.477 564.046 411.915 563.545 412.32H568.393V414H560.681ZM574.688 414.192C573.653 414.192 572.767 413.952 572.031 413.472C571.295 412.981 570.725 412.304 570.319 411.44C569.925 410.565 569.727 409.552 569.727 408.4C569.727 407.259 569.925 406.251 570.319 405.376C570.725 404.501 571.295 403.824 572.031 403.344C572.767 402.853 573.653 402.608 574.688 402.608C575.722 402.608 576.608 402.853 577.344 403.344C578.08 403.824 578.645 404.501 579.04 405.376C579.445 406.251 579.648 407.259 579.648 408.4C579.648 409.552 579.445 410.565 579.04 411.44C578.645 412.304 578.08 412.981 577.344 413.472C576.608 413.952 575.722 414.192 574.688 414.192ZM574.688 412.352C575.53 412.352 576.218 412 576.752 411.296C577.285 410.592 577.552 409.627 577.552 408.4C577.552 407.173 577.285 406.208 576.752 405.504C576.218 404.8 575.53 404.448 574.688 404.448C573.834 404.448 573.141 404.8 572.607 405.504C572.085 406.208 571.823 407.173 571.823 408.4C571.823 409.627 572.085 410.592 572.607 411.296C573.141 412 573.834 412.352 574.688 412.352ZM588.035 414V404.448H584.771V402.8H593.363V404.448H590.083V414H588.035ZM596.289 414.192C595.606 414.192 595.046 414.085 594.609 413.872C594.172 413.648 593.846 413.355 593.633 412.992C593.42 412.629 593.313 412.229 593.313 411.792C593.313 411.056 593.601 410.459 594.177 410C594.753 409.541 595.617 409.312 596.769 409.312H598.785V409.12C598.785 408.576 598.63 408.176 598.321 407.92C598.012 407.664 597.628 407.536 597.169 407.536C596.753 407.536 596.39 407.637 596.081 407.84C595.772 408.032 595.58 408.32 595.505 408.704H593.505C593.558 408.128 593.75 407.627 594.081 407.2C594.422 406.773 594.86 406.448 595.393 406.224C595.926 405.989 596.524 405.872 597.185 405.872C598.316 405.872 599.206 406.155 599.857 406.72C600.508 407.285 600.833 408.085 600.833 409.12V414H599.089L598.897 412.72C598.662 413.147 598.332 413.499 597.905 413.776C597.489 414.053 596.95 414.192 596.289 414.192ZM596.753 412.592C597.34 412.592 597.793 412.4 598.113 412.016C598.444 411.632 598.652 411.157 598.737 410.592H596.993C596.449 410.592 596.06 410.693 595.825 410.896C595.59 411.088 595.473 411.328 595.473 411.616C595.473 411.925 595.59 412.165 595.825 412.336C596.06 412.507 596.369 412.592 596.753 412.592ZM602.867 414V406.064H604.675L604.835 407.408C605.081 406.939 605.433 406.565 605.891 406.288C606.361 406.011 606.91 405.872 607.539 405.872C608.521 405.872 609.283 406.181 609.827 406.8C610.371 407.419 610.643 408.325 610.643 409.52V414H608.595V409.712C608.595 409.029 608.457 408.507 608.179 408.144C607.902 407.781 607.47 407.6 606.883 407.6C606.307 407.6 605.833 407.803 605.459 408.208C605.097 408.613 604.915 409.179 604.915 409.904V414H602.867ZM615.418 414.192C614.735 414.192 614.175 414.085 613.738 413.872C613.301 413.648 612.975 413.355 612.762 412.992C612.549 412.629 612.442 412.229 612.442 411.792C612.442 411.056 612.73 410.459 613.306 410C613.882 409.541 614.746 409.312 615.898 409.312H617.914V409.12C617.914 408.576 617.759 408.176 617.45 407.92C617.141 407.664 616.757 407.536 616.298 407.536C615.882 407.536 615.519 407.637 615.21 407.84C614.901 408.032 614.709 408.32 614.634 408.704H612.634C612.687 408.128 612.879 407.627 613.21 407.2C613.551 406.773 613.989 406.448 614.522 406.224C615.055 405.989 615.653 405.872 616.314 405.872C617.445 405.872 618.335 406.155 618.986 406.72C619.637 407.285 619.962 408.085 619.962 409.12V414H618.218L618.026 412.72C617.791 413.147 617.461 413.499 617.034 413.776C616.618 414.053 616.079 414.192 615.418 414.192ZM615.882 412.592C616.469 412.592 616.922 412.4 617.242 412.016C617.573 411.632 617.781 411.157 617.866 410.592H616.122C615.578 410.592 615.189 410.693 614.954 410.896C614.719 411.088 614.602 411.328 614.602 411.616C614.602 411.925 614.719 412.165 614.954 412.336C615.189 412.507 615.498 412.592 615.882 412.592ZM621.996 414V402.48H624.044V407.28C624.311 406.843 624.668 406.501 625.116 406.256C625.575 406 626.098 405.872 626.684 405.872C627.666 405.872 628.423 406.181 628.956 406.8C629.5 407.419 629.772 408.325 629.772 409.52V414H627.74V409.712C627.74 409.029 627.602 408.507 627.324 408.144C627.058 407.781 626.631 407.6 626.044 407.6C625.468 407.6 624.988 407.803 624.604 408.208C624.231 408.613 624.044 409.179 624.044 409.904V414H621.996ZM631.139 414L635.235 402.8H637.539L641.635 414H639.459L638.563 411.408H634.195L633.283 414H631.139ZM634.755 409.808H638.003L636.371 405.152L634.755 409.808ZM644.213 404.832C643.84 404.832 643.531 404.72 643.285 404.496C643.051 404.272 642.933 403.989 642.933 403.648C642.933 403.307 643.051 403.029 643.285 402.816C643.531 402.592 643.84 402.48 644.213 402.48C644.587 402.48 644.891 402.592 645.125 402.816C645.371 403.029 645.493 403.307 645.493 403.648C645.493 403.989 645.371 404.272 645.125 404.496C644.891 404.72 644.587 404.832 644.213 404.832ZM643.189 414V406.064H645.237V414H643.189ZM647.455 414V406.064H649.279L649.471 407.552C649.759 407.04 650.148 406.635 650.639 406.336C651.14 406.027 651.727 405.872 652.399 405.872V408.032H651.823C651.375 408.032 650.975 408.101 650.623 408.24C650.271 408.379 649.994 408.619 649.791 408.96C649.599 409.301 649.503 409.776 649.503 410.384V414H647.455ZM661.643 414.192C660.822 414.192 660.097 414.053 659.467 413.776C658.838 413.488 658.342 413.083 657.979 412.56C657.617 412.027 657.43 411.381 657.419 410.624H659.579C659.601 411.147 659.787 411.589 660.139 411.952C660.502 412.304 660.998 412.48 661.627 412.48C662.171 412.48 662.603 412.352 662.923 412.096C663.243 411.829 663.403 411.477 663.403 411.04C663.403 410.581 663.259 410.224 662.971 409.968C662.694 409.712 662.321 409.504 661.851 409.344C661.382 409.184 660.881 409.013 660.347 408.832C659.483 408.533 658.822 408.149 658.363 407.68C657.915 407.211 657.691 406.587 657.691 405.808C657.681 405.147 657.835 404.581 658.155 404.112C658.486 403.632 658.934 403.264 659.499 403.008C660.065 402.741 660.715 402.608 661.451 402.608C662.198 402.608 662.854 402.741 663.419 403.008C663.995 403.275 664.443 403.648 664.763 404.128C665.094 404.608 665.27 405.179 665.291 405.84H663.099C663.089 405.445 662.934 405.099 662.635 404.8C662.347 404.491 661.942 404.336 661.419 404.336C660.971 404.325 660.593 404.437 660.283 404.672C659.985 404.896 659.835 405.227 659.835 405.664C659.835 406.037 659.953 406.336 660.187 406.56C660.422 406.773 660.742 406.955 661.147 407.104C661.553 407.253 662.017 407.413 662.539 407.584C663.094 407.776 663.601 408 664.059 408.256C664.518 408.512 664.886 408.853 665.163 409.28C665.441 409.696 665.579 410.235 665.579 410.896C665.579 411.483 665.43 412.027 665.131 412.528C664.833 413.029 664.39 413.435 663.803 413.744C663.217 414.043 662.497 414.192 661.643 414.192ZM670.934 414C670.102 414 669.435 413.797 668.934 413.392C668.433 412.987 668.182 412.267 668.182 411.232V407.776H666.822V406.064H668.182L668.422 403.936H670.23V406.064H672.374V407.776H670.23V411.248C670.23 411.632 670.31 411.899 670.47 412.048C670.641 412.187 670.929 412.256 671.334 412.256H672.326V414H670.934ZM677.189 414.192C676.197 414.192 675.429 413.883 674.885 413.264C674.351 412.645 674.085 411.739 674.085 410.544V406.064H676.117V410.352C676.117 411.035 676.255 411.557 676.533 411.92C676.81 412.283 677.247 412.464 677.845 412.464C678.41 412.464 678.874 412.261 679.237 411.856C679.61 411.451 679.797 410.885 679.797 410.16V406.064H681.845V414H680.037L679.877 412.656C679.631 413.125 679.274 413.499 678.805 413.776C678.346 414.053 677.807 414.192 677.189 414.192ZM687.675 414.192C686.928 414.192 686.262 414.011 685.675 413.648C685.088 413.285 684.624 412.789 684.283 412.16C683.942 411.531 683.771 410.816 683.771 410.016C683.771 409.216 683.942 408.507 684.283 407.888C684.624 407.259 685.088 406.768 685.675 406.416C686.262 406.053 686.928 405.872 687.675 405.872C688.272 405.872 688.795 405.984 689.243 406.208C689.691 406.432 690.054 406.747 690.331 407.152V402.48H692.379V414H690.555L690.331 412.864C690.075 413.216 689.734 413.525 689.307 413.792C688.891 414.059 688.347 414.192 687.675 414.192ZM688.107 412.4C688.768 412.4 689.307 412.181 689.723 411.744C690.15 411.296 690.363 410.725 690.363 410.032C690.363 409.339 690.15 408.773 689.723 408.336C689.307 407.888 688.768 407.664 688.107 407.664C687.456 407.664 686.918 407.883 686.491 408.32C686.064 408.757 685.851 409.323 685.851 410.016C685.851 410.709 686.064 411.28 686.491 411.728C686.918 412.176 687.456 412.4 688.107 412.4ZM695.648 404.832C695.275 404.832 694.966 404.72 694.72 404.496C694.486 404.272 694.368 403.989 694.368 403.648C694.368 403.307 694.486 403.029 694.72 402.816C694.966 402.592 695.275 402.48 695.648 402.48C696.022 402.48 696.326 402.592 696.56 402.816C696.806 403.029 696.928 403.307 696.928 403.648C696.928 403.989 696.806 404.272 696.56 404.496C696.326 404.72 696.022 404.832 695.648 404.832ZM694.624 414V406.064H696.672V414H694.624ZM702.698 414.192C701.93 414.192 701.237 414.016 700.618 413.664C700.01 413.312 699.525 412.827 699.162 412.208C698.81 411.579 698.634 410.853 698.634 410.032C698.634 409.211 698.815 408.491 699.178 407.872C699.541 407.243 700.026 406.752 700.634 406.4C701.253 406.048 701.946 405.872 702.714 405.872C703.471 405.872 704.154 406.048 704.762 406.4C705.381 406.752 705.866 407.243 706.218 407.872C706.581 408.491 706.762 409.211 706.762 410.032C706.762 410.853 706.581 411.579 706.218 412.208C705.866 412.827 705.381 413.312 704.762 413.664C704.143 414.016 703.455 414.192 702.698 414.192ZM702.698 412.416C703.231 412.416 703.695 412.219 704.09 411.824C704.485 411.419 704.682 410.821 704.682 410.032C704.682 409.243 704.485 408.651 704.09 408.256C703.695 407.851 703.237 407.648 702.714 407.648C702.17 407.648 701.701 407.851 701.306 408.256C700.922 408.651 700.73 409.243 700.73 410.032C700.73 410.821 700.922 411.419 701.306 411.824C701.701 412.219 702.165 412.416 702.698 412.416ZM709.553 414.112C709.18 414.112 708.87 413.995 708.625 413.76C708.39 413.525 708.273 413.243 708.273 412.912C708.273 412.571 708.39 412.283 708.625 412.048C708.87 411.813 709.18 411.696 709.553 411.696C709.926 411.696 710.23 411.813 710.465 412.048C710.71 412.283 710.833 412.571 710.833 412.912C710.833 413.243 710.71 413.525 710.465 413.76C710.23 413.995 709.926 414.112 709.553 414.112ZM715.817 414L719.913 402.8H722.217L726.313 414H724.137L723.241 411.408H718.873L717.961 414H715.817ZM719.433 409.808H722.681L721.049 405.152L719.433 409.808ZM727.788 414V402.48H729.836V414H727.788ZM732.009 414V402.48H734.057V414H732.009ZM740.122 414V406.064H741.946L742.138 407.552C742.426 407.04 742.815 406.635 743.306 406.336C743.807 406.027 744.394 405.872 745.066 405.872V408.032H744.49C744.042 408.032 743.642 408.101 743.29 408.24C742.938 408.379 742.661 408.619 742.458 408.96C742.266 409.301 742.17 409.776 742.17 410.384V414H740.122ZM747.65 404.832C747.276 404.832 746.967 404.72 746.722 404.496C746.487 404.272 746.37 403.989 746.37 403.648C746.37 403.307 746.487 403.029 746.722 402.816C746.967 402.592 747.276 402.48 747.65 402.48C748.023 402.48 748.327 402.592 748.562 402.816C748.807 403.029 748.93 403.307 748.93 403.648C748.93 403.989 748.807 404.272 748.562 404.496C748.327 404.72 748.023 404.832 747.65 404.832ZM746.626 414V406.064H748.674V414H746.626ZM754.251 411.632C753.867 411.632 753.51 411.589 753.179 411.504L752.587 412.096C752.769 412.192 753.014 412.272 753.323 412.336C753.633 412.4 754.134 412.464 754.827 412.528C755.883 412.624 756.651 412.875 757.131 413.28C757.611 413.685 757.851 414.245 757.851 414.96C757.851 415.429 757.723 415.872 757.467 416.288C757.211 416.715 756.817 417.056 756.283 417.312C755.75 417.579 755.067 417.712 754.235 417.712C753.105 417.712 752.193 417.499 751.499 417.072C750.806 416.656 750.459 416.027 750.459 415.184C750.459 414.469 750.806 413.851 751.499 413.328C751.286 413.232 751.099 413.131 750.939 413.024C750.79 412.917 750.657 412.805 750.539 412.688V412.32L751.931 410.848C751.313 410.304 751.003 409.605 751.003 408.752C751.003 408.219 751.131 407.733 751.387 407.296C751.654 406.859 752.027 406.512 752.507 406.256C752.987 406 753.569 405.872 754.251 405.872C754.699 405.872 755.115 405.936 755.499 406.064H758.507V407.312L757.147 407.408C757.361 407.813 757.467 408.261 757.467 408.752C757.467 409.285 757.339 409.771 757.083 410.208C756.827 410.645 756.454 410.992 755.963 411.248C755.483 411.504 754.913 411.632 754.251 411.632ZM754.251 410.064C754.667 410.064 755.009 409.952 755.275 409.728C755.553 409.504 755.691 409.184 755.691 408.768C755.691 408.352 755.553 408.032 755.275 407.808C755.009 407.584 754.667 407.472 754.251 407.472C753.814 407.472 753.462 407.584 753.195 407.808C752.929 408.032 752.795 408.352 752.795 408.768C752.795 409.184 752.929 409.504 753.195 409.728C753.462 409.952 753.814 410.064 754.251 410.064ZM752.331 414.976C752.331 415.371 752.513 415.664 752.875 415.856C753.249 416.059 753.702 416.16 754.235 416.16C754.747 416.16 755.163 416.053 755.483 415.84C755.803 415.637 755.963 415.36 755.963 415.008C755.963 414.72 755.857 414.48 755.643 414.288C755.441 414.096 755.03 413.979 754.411 413.936C753.974 413.904 753.569 413.856 753.195 413.792C752.886 413.963 752.662 414.149 752.523 414.352C752.395 414.555 752.331 414.763 752.331 414.976ZM760.081 414V402.48H762.129V407.28C762.395 406.843 762.753 406.501 763.201 406.256C763.659 406 764.182 405.872 764.769 405.872C765.75 405.872 766.507 406.181 767.041 406.8C767.585 407.419 767.857 408.325 767.857 409.52V414H765.825V409.712C765.825 409.029 765.686 408.507 765.409 408.144C765.142 407.781 764.715 407.6 764.129 407.6C763.553 407.6 763.073 407.803 762.689 408.208C762.315 408.613 762.129 409.179 762.129 409.904V414H760.081ZM773.431 414C772.599 414 771.932 413.797 771.431 413.392C770.93 412.987 770.679 412.267 770.679 411.232V407.776H769.319V406.064H770.679L770.919 403.936H772.727V406.064H774.871V407.776H772.727V411.248C772.727 411.632 772.807 411.899 772.967 412.048C773.138 412.187 773.426 412.256 773.831 412.256H774.823V414H773.431ZM779.989 414.192C779.285 414.192 778.667 414.08 778.133 413.856C777.6 413.621 777.173 413.301 776.853 412.896C776.533 412.491 776.341 412.021 776.277 411.488H778.341C778.405 411.797 778.576 412.064 778.853 412.288C779.141 412.501 779.509 412.608 779.957 412.608C780.405 412.608 780.731 412.517 780.933 412.336C781.147 412.155 781.253 411.947 781.253 411.712C781.253 411.371 781.104 411.141 780.805 411.024C780.507 410.896 780.091 410.773 779.557 410.656C779.216 410.581 778.869 410.491 778.517 410.384C778.165 410.277 777.84 410.144 777.541 409.984C777.253 409.813 777.019 409.6 776.837 409.344C776.656 409.077 776.565 408.752 776.565 408.368C776.565 407.664 776.843 407.072 777.397 406.592C777.963 406.112 778.752 405.872 779.765 405.872C780.704 405.872 781.451 406.091 782.005 406.528C782.571 406.965 782.907 407.568 783.013 408.336H781.077C780.96 407.749 780.517 407.456 779.749 407.456C779.365 407.456 779.067 407.531 778.853 407.68C778.651 407.829 778.549 408.016 778.549 408.24C778.549 408.475 778.704 408.661 779.013 408.8C779.323 408.939 779.733 409.067 780.245 409.184C780.8 409.312 781.307 409.456 781.765 409.616C782.235 409.765 782.608 409.995 782.885 410.304C783.163 410.603 783.301 411.035 783.301 411.6C783.312 412.091 783.184 412.533 782.917 412.928C782.651 413.323 782.267 413.632 781.765 413.856C781.264 414.08 780.672 414.192 779.989 414.192ZM789.088 414V406.064H790.912L791.104 407.552C791.392 407.04 791.781 406.635 792.272 406.336C792.773 406.027 793.36 405.872 794.032 405.872V408.032H793.456C793.008 408.032 792.608 408.101 792.256 408.24C791.904 408.379 791.627 408.619 791.424 408.96C791.232 409.301 791.136 409.776 791.136 410.384V414H789.088ZM799.227 414.192C798.427 414.192 797.718 414.021 797.099 413.68C796.481 413.339 795.995 412.859 795.643 412.24C795.291 411.621 795.115 410.907 795.115 410.096C795.115 409.275 795.286 408.544 795.627 407.904C795.979 407.264 796.459 406.768 797.067 406.416C797.686 406.053 798.411 405.872 799.243 405.872C800.022 405.872 800.71 406.043 801.307 406.384C801.905 406.725 802.369 407.195 802.699 407.792C803.041 408.379 803.211 409.035 803.211 409.76C803.211 409.877 803.206 410 803.195 410.128C803.195 410.256 803.19 410.389 803.179 410.528H797.147C797.19 411.147 797.403 411.632 797.787 411.984C798.182 412.336 798.657 412.512 799.211 412.512C799.627 412.512 799.974 412.421 800.251 412.24C800.539 412.048 800.753 411.803 800.891 411.504H802.971C802.822 412.005 802.571 412.464 802.219 412.88C801.878 413.285 801.451 413.605 800.939 413.84C800.438 414.075 799.867 414.192 799.227 414.192ZM799.243 407.536C798.742 407.536 798.299 407.68 797.915 407.968C797.531 408.245 797.286 408.672 797.179 409.248H801.131C801.099 408.725 800.907 408.309 800.555 408C800.203 407.691 799.766 407.536 799.243 407.536ZM808.294 414.192C807.59 414.192 806.971 414.08 806.438 413.856C805.904 413.621 805.478 413.301 805.158 412.896C804.838 412.491 804.646 412.021 804.582 411.488H806.646C806.71 411.797 806.88 412.064 807.158 412.288C807.446 412.501 807.814 412.608 808.262 412.608C808.71 412.608 809.035 412.517 809.238 412.336C809.451 412.155 809.558 411.947 809.558 411.712C809.558 411.371 809.408 411.141 809.11 411.024C808.811 410.896 808.395 410.773 807.862 410.656C807.52 410.581 807.174 410.491 806.822 410.384C806.47 410.277 806.144 410.144 805.846 409.984C805.558 409.813 805.323 409.6 805.142 409.344C804.96 409.077 804.87 408.752 804.87 408.368C804.87 407.664 805.147 407.072 805.702 406.592C806.267 406.112 807.056 405.872 808.07 405.872C809.008 405.872 809.755 406.091 810.31 406.528C810.875 406.965 811.211 407.568 811.318 408.336H809.382C809.264 407.749 808.822 407.456 808.054 407.456C807.67 407.456 807.371 407.531 807.158 407.68C806.955 407.829 806.854 408.016 806.854 408.24C806.854 408.475 807.008 408.661 807.318 408.8C807.627 408.939 808.038 409.067 808.55 409.184C809.104 409.312 809.611 409.456 810.07 409.616C810.539 409.765 810.912 409.995 811.19 410.304C811.467 410.603 811.606 411.035 811.606 411.6C811.616 412.091 811.488 412.533 811.222 412.928C810.955 413.323 810.571 413.632 810.07 413.856C809.568 414.08 808.976 414.192 808.294 414.192ZM817.356 414.192C816.556 414.192 815.847 414.021 815.228 413.68C814.609 413.339 814.124 412.859 813.772 412.24C813.42 411.621 813.244 410.907 813.244 410.096C813.244 409.275 813.415 408.544 813.756 407.904C814.108 407.264 814.588 406.768 815.196 406.416C815.815 406.053 816.54 405.872 817.372 405.872C818.151 405.872 818.839 406.043 819.436 406.384C820.033 406.725 820.497 407.195 820.828 407.792C821.169 408.379 821.34 409.035 821.34 409.76C821.34 409.877 821.335 410 821.324 410.128C821.324 410.256 821.319 410.389 821.308 410.528H815.276C815.319 411.147 815.532 411.632 815.916 411.984C816.311 412.336 816.785 412.512 817.34 412.512C817.756 412.512 818.103 412.421 818.38 412.24C818.668 412.048 818.881 411.803 819.02 411.504H821.1C820.951 412.005 820.7 412.464 820.348 412.88C820.007 413.285 819.58 413.605 819.068 413.84C818.567 414.075 817.996 414.192 817.356 414.192ZM817.372 407.536C816.871 407.536 816.428 407.68 816.044 407.968C815.66 408.245 815.415 408.672 815.308 409.248H819.26C819.228 408.725 819.036 408.309 818.684 408C818.332 407.691 817.895 407.536 817.372 407.536ZM823.143 414V406.064H824.967L825.159 407.552C825.447 407.04 825.836 406.635 826.327 406.336C826.828 406.027 827.415 405.872 828.087 405.872V408.032H827.511C827.063 408.032 826.663 408.101 826.311 408.24C825.959 408.379 825.681 408.619 825.479 408.96C825.287 409.301 825.191 409.776 825.191 410.384V414H823.143ZM831.71 414L828.798 406.064H830.942L832.958 412.064L834.974 406.064H837.118L834.19 414H831.71ZM841.955 414.192C841.155 414.192 840.446 414.021 839.827 413.68C839.209 413.339 838.723 412.859 838.371 412.24C838.019 411.621 837.843 410.907 837.843 410.096C837.843 409.275 838.014 408.544 838.355 407.904C838.707 407.264 839.187 406.768 839.795 406.416C840.414 406.053 841.139 405.872 841.971 405.872C842.75 405.872 843.438 406.043 844.035 406.384C844.633 406.725 845.097 407.195 845.427 407.792C845.769 408.379 845.939 409.035 845.939 409.76C845.939 409.877 845.934 410 845.923 410.128C845.923 410.256 845.918 410.389 845.907 410.528H839.875C839.918 411.147 840.131 411.632 840.515 411.984C840.91 412.336 841.385 412.512 841.939 412.512C842.355 412.512 842.702 412.421 842.979 412.24C843.267 412.048 843.481 411.803 843.619 411.504H845.699C845.55 412.005 845.299 412.464 844.947 412.88C844.606 413.285 844.179 413.605 843.667 413.84C843.166 414.075 842.595 414.192 841.955 414.192ZM841.971 407.536C841.47 407.536 841.027 407.68 840.643 407.968C840.259 408.245 840.014 408.672 839.907 409.248H843.859C843.827 408.725 843.635 408.309 843.283 408C842.931 407.691 842.494 407.536 841.971 407.536ZM851.39 414.192C850.643 414.192 849.977 414.011 849.39 413.648C848.803 413.285 848.339 412.789 847.998 412.16C847.657 411.531 847.486 410.816 847.486 410.016C847.486 409.216 847.657 408.507 847.998 407.888C848.339 407.259 848.803 406.768 849.39 406.416C849.977 406.053 850.643 405.872 851.39 405.872C851.987 405.872 852.51 405.984 852.958 406.208C853.406 406.432 853.769 406.747 854.046 407.152V402.48H856.094V414H854.27L854.046 412.864C853.79 413.216 853.449 413.525 853.022 413.792C852.606 414.059 852.062 414.192 851.39 414.192ZM851.822 412.4C852.483 412.4 853.022 412.181 853.438 411.744C853.865 411.296 854.078 410.725 854.078 410.032C854.078 409.339 853.865 408.773 853.438 408.336C853.022 407.888 852.483 407.664 851.822 407.664C851.171 407.664 850.633 407.883 850.206 408.32C849.779 408.757 849.566 409.323 849.566 410.016C849.566 410.709 849.779 411.28 850.206 411.728C850.633 412.176 851.171 412.4 851.822 412.4ZM859.139 414.112C858.766 414.112 858.457 413.995 858.211 413.76C857.977 413.525 857.859 413.243 857.859 412.912C857.859 412.571 857.977 412.283 858.211 412.048C858.457 411.813 858.766 411.696 859.139 411.696C859.513 411.696 859.817 411.813 860.051 412.048C860.297 412.283 860.419 412.571 860.419 412.912C860.419 413.243 860.297 413.525 860.051 413.76C859.817 413.995 859.513 414.112 859.139 414.112Z" fill="#11142D"/>
<path d="M521.088 193V181.8H525.232C526.128 181.8 526.869 181.949 527.456 182.248C528.043 182.547 528.48 182.957 528.768 183.48C529.056 184.003 529.2 184.589 529.2 185.24C529.2 185.859 529.061 186.429 528.784 186.952C528.507 187.464 528.075 187.88 527.488 188.2C526.901 188.509 526.149 188.664 525.232 188.664H523.136V193H521.088ZM523.136 187H525.104C525.819 187 526.331 186.845 526.64 186.536C526.96 186.216 527.12 185.784 527.12 185.24C527.12 184.685 526.96 184.253 526.64 183.944C526.331 183.624 525.819 183.464 525.104 183.464H523.136V187ZM530.839 193V185.064H532.663L532.855 186.552C533.143 186.04 533.532 185.635 534.023 185.336C534.524 185.027 535.111 184.872 535.783 184.872V187.032H535.207C534.759 187.032 534.359 187.101 534.007 187.24C533.655 187.379 533.377 187.619 533.175 187.96C532.983 188.301 532.887 188.776 532.887 189.384V193H530.839ZM538.366 183.832C537.993 183.832 537.684 183.72 537.438 183.496C537.204 183.272 537.086 182.989 537.086 182.648C537.086 182.307 537.204 182.029 537.438 181.816C537.684 181.592 537.993 181.48 538.366 181.48C538.74 181.48 539.044 181.592 539.279 181.816C539.524 182.029 539.647 182.307 539.647 182.648C539.647 182.989 539.524 183.272 539.279 183.496C539.044 183.72 538.74 183.832 538.366 183.832ZM537.342 193V185.064H539.391V193H537.342ZM543.752 193L540.84 185.064H542.984L545 191.064L547.016 185.064H549.16L546.232 193H543.752ZM552.783 193.192C552.101 193.192 551.541 193.085 551.103 192.872C550.666 192.648 550.341 192.355 550.127 191.992C549.914 191.629 549.807 191.229 549.807 190.792C549.807 190.056 550.095 189.459 550.671 189C551.247 188.541 552.111 188.312 553.263 188.312H555.28V188.12C555.28 187.576 555.125 187.176 554.815 186.92C554.506 186.664 554.122 186.536 553.663 186.536C553.247 186.536 552.885 186.637 552.575 186.84C552.266 187.032 552.074 187.32 551.999 187.704H549.999C550.053 187.128 550.245 186.627 550.575 186.2C550.917 185.773 551.354 185.448 551.887 185.224C552.421 184.989 553.018 184.872 553.68 184.872C554.81 184.872 555.701 185.155 556.352 185.72C557.002 186.285 557.328 187.085 557.328 188.12V193H555.583L555.391 191.72C555.157 192.147 554.826 192.499 554.399 192.776C553.983 193.053 553.445 193.192 552.783 193.192ZM553.247 191.592C553.834 191.592 554.288 191.4 554.608 191.016C554.938 190.632 555.146 190.157 555.232 189.592H553.487C552.943 189.592 552.554 189.693 552.319 189.896C552.085 190.088 551.967 190.328 551.967 190.616C551.967 190.925 552.085 191.165 552.319 191.336C552.554 191.507 552.863 191.592 553.247 191.592ZM563.25 193.192C562.439 193.192 561.725 193.016 561.106 192.664C560.487 192.312 559.997 191.821 559.634 191.192C559.282 190.563 559.106 189.843 559.106 189.032C559.106 188.221 559.282 187.501 559.634 186.872C559.997 186.243 560.487 185.752 561.106 185.4C561.725 185.048 562.439 184.872 563.25 184.872C564.263 184.872 565.117 185.139 565.81 185.672C566.503 186.195 566.946 186.92 567.138 187.848H564.978C564.871 187.464 564.658 187.165 564.338 186.952C564.029 186.728 563.661 186.616 563.234 186.616C562.669 186.616 562.189 186.829 561.794 187.256C561.399 187.683 561.202 188.275 561.202 189.032C561.202 189.789 561.399 190.381 561.794 190.808C562.189 191.235 562.669 191.448 563.234 191.448C563.661 191.448 564.029 191.341 564.338 191.128C564.658 190.915 564.871 190.611 564.978 190.216H567.138C566.946 191.112 566.503 191.832 565.81 192.376C565.117 192.92 564.263 193.192 563.25 193.192ZM570.028 196.52L571.868 192.472H571.388L568.3 185.064H570.524L572.748 190.648L575.068 185.064H577.244L572.204 196.52H570.028ZM582.603 193V181.8H586.747C587.643 181.8 588.384 181.949 588.971 182.248C589.558 182.547 589.995 182.957 590.283 183.48C590.571 184.003 590.715 184.589 590.715 185.24C590.715 185.859 590.576 186.429 590.299 186.952C590.022 187.464 589.59 187.88 589.003 188.2C588.416 188.509 587.664 188.664 586.747 188.664H584.651V193H582.603ZM584.651 187H586.619C587.334 187 587.846 186.845 588.155 186.536C588.475 186.216 588.635 185.784 588.635 185.24C588.635 184.685 588.475 184.253 588.155 183.944C587.846 183.624 587.334 183.464 586.619 183.464H584.651V187ZM595.756 193.192C594.988 193.192 594.294 193.016 593.676 192.664C593.068 192.312 592.582 191.827 592.22 191.208C591.868 190.579 591.692 189.853 591.692 189.032C591.692 188.211 591.873 187.491 592.236 186.872C592.598 186.243 593.084 185.752 593.692 185.4C594.31 185.048 595.004 184.872 595.772 184.872C596.529 184.872 597.212 185.048 597.82 185.4C598.438 185.752 598.924 186.243 599.276 186.872C599.638 187.491 599.82 188.211 599.82 189.032C599.82 189.853 599.638 190.579 599.276 191.208C598.924 191.827 598.438 192.312 597.82 192.664C597.201 193.016 596.513 193.192 595.756 193.192ZM595.756 191.416C596.289 191.416 596.753 191.219 597.148 190.824C597.542 190.419 597.74 189.821 597.74 189.032C597.74 188.243 597.542 187.651 597.148 187.256C596.753 186.851 596.294 186.648 595.772 186.648C595.228 186.648 594.758 186.851 594.364 187.256C593.98 187.651 593.788 188.243 593.788 189.032C593.788 189.821 593.98 190.419 594.364 190.824C594.758 191.219 595.222 191.416 595.756 191.416ZM601.731 193V181.48H603.779V193H601.731ZM607.055 183.832C606.682 183.832 606.373 183.72 606.127 183.496C605.893 183.272 605.775 182.989 605.775 182.648C605.775 182.307 605.893 182.029 606.127 181.816C606.373 181.592 606.682 181.48 607.055 181.48C607.429 181.48 607.733 181.592 607.967 181.816C608.213 182.029 608.335 182.307 608.335 182.648C608.335 182.989 608.213 183.272 607.967 183.496C607.733 183.72 607.429 183.832 607.055 183.832ZM606.031 193V185.064H608.079V193H606.031ZM614.185 193.192C613.374 193.192 612.66 193.016 612.041 192.664C611.422 192.312 610.932 191.821 610.569 191.192C610.217 190.563 610.041 189.843 610.041 189.032C610.041 188.221 610.217 187.501 610.569 186.872C610.932 186.243 611.422 185.752 612.041 185.4C612.66 185.048 613.374 184.872 614.185 184.872C615.198 184.872 616.052 185.139 616.745 185.672C617.438 186.195 617.881 186.92 618.073 187.848H615.913C615.806 187.464 615.593 187.165 615.273 186.952C614.964 186.728 614.596 186.616 614.169 186.616C613.604 186.616 613.124 186.829 612.729 187.256C612.334 187.683 612.137 188.275 612.137 189.032C612.137 189.789 612.334 190.381 612.729 190.808C613.124 191.235 613.604 191.448 614.169 191.448C614.596 191.448 614.964 191.341 615.273 191.128C615.593 190.915 615.806 190.611 615.913 190.216H618.073C617.881 191.112 617.438 191.832 616.745 192.376C616.052 192.92 615.198 193.192 614.185 193.192ZM620.963 196.52L622.803 192.472H622.323L619.235 185.064H621.459L623.683 190.648L626.003 185.064H628.179L623.139 196.52H620.963Z" fill="#11142D"/>
<path d="M523.696 236V226.448H520.432V224.8H529.024V226.448H525.744V236H523.696ZM532.992 236.192C532.192 236.192 531.482 236.021 530.864 235.68C530.245 235.339 529.76 234.859 529.408 234.24C529.056 233.621 528.88 232.907 528.88 232.096C528.88 231.275 529.05 230.544 529.392 229.904C529.744 229.264 530.224 228.768 530.832 228.416C531.45 228.053 532.176 227.872 533.008 227.872C533.786 227.872 534.474 228.043 535.072 228.384C535.669 228.725 536.133 229.195 536.464 229.792C536.805 230.379 536.976 231.035 536.976 231.76C536.976 231.877 536.97 232 536.96 232.128C536.96 232.256 536.954 232.389 536.944 232.528H530.912C530.954 233.147 531.168 233.632 531.552 233.984C531.946 234.336 532.421 234.512 532.976 234.512C533.392 234.512 533.738 234.421 534.016 234.24C534.304 234.048 534.517 233.803 534.656 233.504H536.736C536.586 234.005 536.336 234.464 535.984 234.88C535.642 235.285 535.216 235.605 534.704 235.84C534.202 236.075 533.632 236.192 532.992 236.192ZM533.008 229.536C532.506 229.536 532.064 229.68 531.68 229.968C531.296 230.245 531.05 230.672 530.944 231.248H534.896C534.864 230.725 534.672 230.309 534.32 230C533.968 229.691 533.53 229.536 533.008 229.536ZM538.778 236V228.064H540.602L540.794 229.552C541.082 229.04 541.471 228.635 541.962 228.336C542.463 228.027 543.05 227.872 543.722 227.872V230.032H543.146C542.698 230.032 542.298 230.101 541.946 230.24C541.594 230.379 541.317 230.619 541.114 230.96C540.922 231.301 540.826 231.776 540.826 232.384V236H538.778ZM545.202 236V228.064H547.01L547.186 229.136C547.442 228.752 547.778 228.448 548.194 228.224C548.621 227.989 549.111 227.872 549.666 227.872C550.893 227.872 551.762 228.347 552.274 229.296C552.562 228.859 552.946 228.512 553.426 228.256C553.917 228 554.45 227.872 555.026 227.872C556.061 227.872 556.855 228.181 557.41 228.8C557.965 229.419 558.242 230.325 558.242 231.52V236H556.194V231.712C556.194 231.029 556.061 230.507 555.794 230.144C555.538 229.781 555.138 229.6 554.594 229.6C554.039 229.6 553.591 229.803 553.25 230.208C552.919 230.613 552.754 231.179 552.754 231.904V236H550.706V231.712C550.706 231.029 550.573 230.507 550.306 230.144C550.039 229.781 549.629 229.6 549.074 229.6C548.53 229.6 548.087 229.803 547.746 230.208C547.415 230.613 547.25 231.179 547.25 231.904V236H545.202ZM563.546 236.192C562.842 236.192 562.224 236.08 561.69 235.856C561.157 235.621 560.73 235.301 560.41 234.896C560.09 234.491 559.898 234.021 559.834 233.488H561.898C561.962 233.797 562.133 234.064 562.41 234.288C562.698 234.501 563.066 234.608 563.514 234.608C563.962 234.608 564.288 234.517 564.49 234.336C564.704 234.155 564.81 233.947 564.81 233.712C564.81 233.371 564.661 233.141 564.362 233.024C564.064 232.896 563.648 232.773 563.114 232.656C562.773 232.581 562.426 232.491 562.074 232.384C561.722 232.277 561.397 232.144 561.098 231.984C560.81 231.813 560.576 231.6 560.394 231.344C560.213 231.077 560.122 230.752 560.122 230.368C560.122 229.664 560.4 229.072 560.954 228.592C561.52 228.112 562.309 227.872 563.322 227.872C564.261 227.872 565.008 228.091 565.562 228.528C566.128 228.965 566.464 229.568 566.57 230.336H564.634C564.517 229.749 564.074 229.456 563.306 229.456C562.922 229.456 562.624 229.531 562.41 229.68C562.208 229.829 562.106 230.016 562.106 230.24C562.106 230.475 562.261 230.661 562.57 230.8C562.88 230.939 563.29 231.067 563.802 231.184C564.357 231.312 564.864 231.456 565.322 231.616C565.792 231.765 566.165 231.995 566.442 232.304C566.72 232.603 566.858 233.035 566.858 233.6C566.869 234.091 566.741 234.533 566.474 234.928C566.208 235.323 565.824 235.632 565.322 235.856C564.821 236.08 564.229 236.192 563.546 236.192ZM575.381 236.192C574.698 236.192 574.138 236.085 573.701 235.872C573.264 235.648 572.938 235.355 572.725 234.992C572.512 234.629 572.405 234.229 572.405 233.792C572.405 233.056 572.693 232.459 573.269 232C573.845 231.541 574.709 231.312 575.861 231.312H577.877V231.12C577.877 230.576 577.722 230.176 577.413 229.92C577.104 229.664 576.72 229.536 576.261 229.536C575.845 229.536 575.482 229.637 575.173 229.84C574.864 230.032 574.672 230.32 574.597 230.704H572.597C572.65 230.128 572.842 229.627 573.173 229.2C573.514 228.773 573.952 228.448 574.485 228.224C575.018 227.989 575.616 227.872 576.277 227.872C577.408 227.872 578.298 228.155 578.949 228.72C579.6 229.285 579.925 230.085 579.925 231.12V236H578.181L577.989 234.72C577.754 235.147 577.424 235.499 576.997 235.776C576.581 236.053 576.042 236.192 575.381 236.192ZM575.845 234.592C576.432 234.592 576.885 234.4 577.205 234.016C577.536 233.632 577.744 233.157 577.829 232.592H576.085C575.541 232.592 575.152 232.693 574.917 232.896C574.682 233.088 574.565 233.328 574.565 233.616C574.565 233.925 574.682 234.165 574.917 234.336C575.152 234.507 575.461 234.592 575.845 234.592ZM581.959 236V228.064H583.767L583.927 229.408C584.173 228.939 584.525 228.565 584.983 228.288C585.453 228.011 586.002 227.872 586.631 227.872C587.613 227.872 588.375 228.181 588.919 228.8C589.463 229.419 589.735 230.325 589.735 231.52V236H587.687V231.712C587.687 231.029 587.549 230.507 587.271 230.144C586.994 229.781 586.562 229.6 585.975 229.6C585.399 229.6 584.925 229.803 584.551 230.208C584.189 230.613 584.007 231.179 584.007 231.904V236H581.959ZM595.422 236.192C594.675 236.192 594.008 236.011 593.422 235.648C592.835 235.285 592.371 234.789 592.03 234.16C591.688 233.531 591.518 232.816 591.518 232.016C591.518 231.216 591.688 230.507 592.03 229.888C592.371 229.259 592.835 228.768 593.422 228.416C594.008 228.053 594.675 227.872 595.422 227.872C596.019 227.872 596.542 227.984 596.99 228.208C597.438 228.432 597.8 228.747 598.078 229.152V224.48H600.126V236H598.302L598.078 234.864C597.822 235.216 597.48 235.525 597.054 235.792C596.638 236.059 596.094 236.192 595.422 236.192ZM595.854 234.4C596.515 234.4 597.054 234.181 597.47 233.744C597.896 233.296 598.11 232.725 598.11 232.032C598.11 231.339 597.896 230.773 597.47 230.336C597.054 229.888 596.515 229.664 595.854 229.664C595.203 229.664 594.664 229.883 594.238 230.32C593.811 230.757 593.598 231.323 593.598 232.016C593.598 232.709 593.811 233.28 594.238 233.728C594.664 234.176 595.203 234.4 595.854 234.4ZM611.304 236.192C610.173 236.192 609.202 235.952 608.392 235.472C607.581 234.981 606.957 234.304 606.52 233.44C606.082 232.565 605.864 231.557 605.864 230.416C605.864 229.275 606.082 228.267 606.52 227.392C606.957 226.517 607.581 225.835 608.392 225.344C609.202 224.853 610.173 224.608 611.304 224.608C612.648 224.608 613.746 224.944 614.6 225.616C615.464 226.277 616.002 227.211 616.216 228.416H613.96C613.821 227.808 613.522 227.333 613.064 226.992C612.616 226.64 612.018 226.464 611.272 226.464C610.237 226.464 609.426 226.816 608.84 227.52C608.253 228.224 607.96 229.189 607.96 230.416C607.96 231.643 608.253 232.608 608.84 233.312C609.426 234.005 610.237 234.352 611.272 234.352C612.018 234.352 612.616 234.192 613.064 233.872C613.522 233.541 613.821 233.088 613.96 232.512H616.216C616.002 233.664 615.464 234.565 614.6 235.216C613.746 235.867 612.648 236.192 611.304 236.192ZM621.869 236.192C621.101 236.192 620.407 236.016 619.789 235.664C619.181 235.312 618.695 234.827 618.333 234.208C617.981 233.579 617.805 232.853 617.805 232.032C617.805 231.211 617.986 230.491 618.349 229.872C618.711 229.243 619.197 228.752 619.805 228.4C620.423 228.048 621.117 227.872 621.885 227.872C622.642 227.872 623.325 228.048 623.933 228.4C624.551 228.752 625.037 229.243 625.389 229.872C625.751 230.491 625.933 231.211 625.933 232.032C625.933 232.853 625.751 233.579 625.389 234.208C625.037 234.827 624.551 235.312 623.933 235.664C623.314 236.016 622.626 236.192 621.869 236.192ZM621.869 234.416C622.402 234.416 622.866 234.219 623.261 233.824C623.655 233.419 623.853 232.821 623.853 232.032C623.853 231.243 623.655 230.651 623.261 230.256C622.866 229.851 622.407 229.648 621.885 229.648C621.341 229.648 620.871 229.851 620.477 230.256C620.093 230.651 619.901 231.243 619.901 232.032C619.901 232.821 620.093 233.419 620.477 233.824C620.871 234.219 621.335 234.416 621.869 234.416ZM627.844 236V228.064H629.652L629.812 229.408C630.057 228.939 630.409 228.565 630.868 228.288C631.337 228.011 631.886 227.872 632.516 227.872C633.497 227.872 634.26 228.181 634.804 228.8C635.348 229.419 635.62 230.325 635.62 231.52V236H633.572V231.712C633.572 231.029 633.433 230.507 633.156 230.144C632.878 229.781 632.446 229.6 631.86 229.6C631.284 229.6 630.809 229.803 630.436 230.208C630.073 230.613 629.892 231.179 629.892 231.904V236H627.844ZM641.306 236.192C640.559 236.192 639.893 236.011 639.306 235.648C638.719 235.285 638.255 234.789 637.914 234.16C637.573 233.531 637.402 232.816 637.402 232.016C637.402 231.216 637.573 230.507 637.914 229.888C638.255 229.259 638.719 228.768 639.306 228.416C639.893 228.053 640.559 227.872 641.306 227.872C641.903 227.872 642.426 227.984 642.874 228.208C643.322 228.432 643.685 228.747 643.962 229.152V224.48H646.01V236H644.186L643.962 234.864C643.706 235.216 643.365 235.525 642.938 235.792C642.522 236.059 641.978 236.192 641.306 236.192ZM641.738 234.4C642.399 234.4 642.938 234.181 643.354 233.744C643.781 233.296 643.994 232.725 643.994 232.032C643.994 231.339 643.781 230.773 643.354 230.336C642.938 229.888 642.399 229.664 641.738 229.664C641.087 229.664 640.549 229.883 640.122 230.32C639.695 230.757 639.482 231.323 639.482 232.016C639.482 232.709 639.695 233.28 640.122 233.728C640.549 234.176 641.087 234.4 641.738 234.4ZM649.28 226.832C648.906 226.832 648.597 226.72 648.352 226.496C648.117 226.272 648 225.989 648 225.648C648 225.307 648.117 225.029 648.352 224.816C648.597 224.592 648.906 224.48 649.28 224.48C649.653 224.48 649.957 224.592 650.192 224.816C650.437 225.029 650.56 225.307 650.56 225.648C650.56 225.989 650.437 226.272 650.192 226.496C649.957 226.72 649.653 226.832 649.28 226.832ZM648.256 236V228.064H650.304V236H648.256ZM656.057 236C655.225 236 654.559 235.797 654.057 235.392C653.556 234.987 653.305 234.267 653.305 233.232V229.776H651.945V228.064H653.305L653.545 225.936H655.353V228.064H657.497V229.776H655.353V233.248C655.353 233.632 655.433 233.899 655.593 234.048C655.764 234.187 656.052 234.256 656.457 234.256H657.449V236H656.057ZM660.44 226.832C660.066 226.832 659.757 226.72 659.512 226.496C659.277 226.272 659.16 225.989 659.16 225.648C659.16 225.307 659.277 225.029 659.512 224.816C659.757 224.592 660.066 224.48 660.44 224.48C660.813 224.48 661.117 224.592 661.352 224.816C661.597 225.029 661.72 225.307 661.72 225.648C661.72 225.989 661.597 226.272 661.352 226.496C661.117 226.72 660.813 226.832 660.44 226.832ZM659.416 236V228.064H661.464V236H659.416ZM667.489 236.192C666.721 236.192 666.028 236.016 665.409 235.664C664.801 235.312 664.316 234.827 663.953 234.208C663.601 233.579 663.425 232.853 663.425 232.032C663.425 231.211 663.607 230.491 663.969 229.872C664.332 229.243 664.817 228.752 665.425 228.4C666.044 228.048 666.737 227.872 667.505 227.872C668.263 227.872 668.945 228.048 669.553 228.4C670.172 228.752 670.657 229.243 671.009 229.872C671.372 230.491 671.553 231.211 671.553 232.032C671.553 232.853 671.372 233.579 671.009 234.208C670.657 234.827 670.172 235.312 669.553 235.664C668.935 236.016 668.247 236.192 667.489 236.192ZM667.489 234.416C668.023 234.416 668.487 234.219 668.881 233.824C669.276 233.419 669.473 232.821 669.473 232.032C669.473 231.243 669.276 230.651 668.881 230.256C668.487 229.851 668.028 229.648 667.505 229.648C666.961 229.648 666.492 229.851 666.097 230.256C665.713 230.651 665.521 231.243 665.521 232.032C665.521 232.821 665.713 233.419 666.097 233.824C666.492 234.219 666.956 234.416 667.489 234.416ZM673.464 236V228.064H675.272L675.432 229.408C675.678 228.939 676.03 228.565 676.488 228.288C676.958 228.011 677.507 227.872 678.136 227.872C679.118 227.872 679.88 228.181 680.424 228.8C680.968 229.419 681.24 230.325 681.24 231.52V236H679.192V231.712C679.192 231.029 679.054 230.507 678.776 230.144C678.499 229.781 678.067 229.6 677.48 229.6C676.904 229.6 676.43 229.803 676.056 230.208C675.694 230.613 675.512 231.179 675.512 231.904V236H673.464Z" fill="#11142D"/>
<circle cx="1146" cy="108" r="20" fill="#F86338"/>
<path d="M1141.08 108.28L1137.66 102.312L1136.74 102.104V101.112H1141.45V102.104L1140.31 102.312L1142.31 106.232L1142.76 107.336L1143.22 106.232L1145.06 102.312L1143.82 102.104V101.112H1147.72V102.104L1146.73 102.296L1143.54 108.264V111.88L1145.29 112.04V113H1139.38V112.04L1141.08 111.88V108.28ZM1150.91 113.144C1150.24 113.144 1149.74 112.989 1149.42 112.68C1149.1 112.371 1148.94 111.88 1148.94 111.208V105.336H1147.9V104.504C1147.99 104.472 1148.14 104.419 1148.37 104.344C1148.59 104.259 1148.76 104.189 1148.88 104.136C1149.06 103.997 1149.21 103.757 1149.34 103.416C1149.44 103.192 1149.61 102.637 1149.87 101.752H1151.15L1151.21 104.104H1153.66V105.336H1151.23V109.832C1151.23 110.429 1151.25 110.851 1151.28 111.096C1151.31 111.341 1151.38 111.501 1151.49 111.576C1151.59 111.64 1151.78 111.672 1152.05 111.672C1152.31 111.672 1152.59 111.645 1152.88 111.592C1153.17 111.528 1153.41 111.453 1153.6 111.368L1153.9 112.264C1153.6 112.488 1153.17 112.691 1152.59 112.872C1152.01 113.053 1151.45 113.144 1150.91 113.144Z" fill="white"/>
<circle cx="1202" cy="108" r="20" fill="#F86338"/>
<path d="M1193.89 103.312L1192.58 103.104V102.112H1201.41L1201.57 105.008H1200.29L1199.7 103.248L1196.24 103.072V107.6L1198.62 107.552L1198.93 106.144H1199.95V110.208H1198.94L1198.62 108.768L1196.24 108.704V112.88L1198.69 113.04V114H1192.66V113.04L1193.89 112.88V103.312ZM1202.03 101.232L1204.96 100.88H1204.99L1205.44 101.184V105.904C1205.73 105.616 1206.08 105.376 1206.5 105.184C1206.92 104.981 1207.38 104.88 1207.87 104.88C1208.9 104.88 1209.73 105.243 1210.37 105.968C1211.02 106.683 1211.35 107.781 1211.35 109.264C1211.35 110.181 1211.15 111.013 1210.77 111.76C1210.39 112.507 1209.83 113.099 1209.11 113.536C1208.39 113.963 1207.56 114.176 1206.61 114.176C1205.77 114.176 1205.04 114.107 1204.42 113.968C1203.8 113.819 1203.4 113.685 1203.23 113.568V102.256L1202.03 102.064V101.232ZM1207.03 106.288C1206.71 106.288 1206.4 106.363 1206.11 106.512C1205.84 106.651 1205.61 106.811 1205.44 106.992V112.832C1205.51 112.949 1205.65 113.045 1205.89 113.12C1206.12 113.195 1206.39 113.232 1206.69 113.232C1207.37 113.232 1207.92 112.917 1208.32 112.288C1208.74 111.648 1208.95 110.704 1208.95 109.456C1208.95 108.379 1208.77 107.584 1208.42 107.072C1208.07 106.549 1207.6 106.288 1207.03 106.288Z" fill="white"/>
<circle cx="1258" cy="108" r="20" fill="#F86338"/>
<path d="M1251.51 103.168L1249.22 103.248L1248.6 106.736H1247.26L1247.53 102.112H1257.85L1258.04 106.736H1256.78L1256.15 103.248L1253.9 103.168V112.88L1256.14 113.04V114H1249.46V113.04L1251.51 112.88V103.168ZM1258.25 105.12H1262.37V106.032L1261.25 106.224L1262.44 110.48L1262.82 112.224L1263.17 110.464L1264.61 105.12H1266.55L1268.13 110.464L1268.52 112.224L1268.9 110.48L1270.02 106.24L1268.85 106.032V105.12H1272.28V106.032L1271.46 106.208L1269.03 114.128H1267.19L1265.57 108.944L1265.21 107.04L1264.92 108.944L1263.43 114.128H1261.57L1259.01 106.208L1258.25 106.032V105.12Z" fill="white"/>
<circle cx="1314" cy="108" r="20" fill="#F86338"/>
<path d="M1309.1 103.312L1307.74 103.104V102.112H1312.86V103.104L1311.45 103.312V112.88L1312.86 113.056V114H1307.74V113.04L1309.1 112.88V103.312ZM1318.25 118.32C1316.82 118.32 1315.79 118.096 1315.15 117.648C1314.51 117.2 1314.19 116.592 1314.19 115.824C1314.19 115.387 1314.33 114.971 1314.62 114.576C1314.92 114.192 1315.27 113.904 1315.69 113.712C1315.2 113.424 1314.95 112.965 1314.95 112.336C1314.95 111.973 1315.07 111.632 1315.31 111.312C1315.54 110.981 1315.84 110.725 1316.22 110.544C1315.63 110.32 1315.19 109.979 1314.91 109.52C1314.62 109.061 1314.47 108.517 1314.47 107.888C1314.47 107.28 1314.65 106.752 1315 106.304C1315.36 105.845 1315.84 105.493 1316.44 105.248C1317.05 105.003 1317.71 104.88 1318.41 104.88C1319.66 104.88 1320.59 105.12 1321.19 105.6C1321.33 105.419 1321.57 105.248 1321.9 105.088C1322.23 104.928 1322.57 104.848 1322.92 104.848H1323.48V106.592H1321.83C1321.99 106.933 1322.07 107.296 1322.07 107.68C1322.08 108.651 1321.74 109.429 1321.05 110.016C1320.36 110.592 1319.41 110.88 1318.2 110.88C1317.7 110.88 1317.28 110.843 1316.94 110.768C1316.83 110.907 1316.75 111.056 1316.68 111.216C1316.63 111.365 1316.6 111.499 1316.6 111.616C1316.6 111.968 1316.72 112.208 1316.97 112.336C1317.23 112.464 1317.68 112.528 1318.33 112.528H1320.04C1322.22 112.528 1323.31 113.317 1323.31 114.896C1323.31 115.557 1323.07 116.149 1322.6 116.672C1322.13 117.195 1321.51 117.6 1320.73 117.888C1319.95 118.176 1319.12 118.32 1318.25 118.32ZM1318.36 109.888C1319.35 109.888 1319.85 109.211 1319.85 107.856C1319.85 107.163 1319.72 106.656 1319.47 106.336C1319.22 106.005 1318.84 105.84 1318.33 105.84C1317.83 105.84 1317.44 106.005 1317.16 106.336C1316.9 106.656 1316.76 107.141 1316.76 107.792C1316.76 109.189 1317.3 109.888 1318.36 109.888ZM1318.49 117.216C1319.16 117.216 1319.74 117.051 1320.23 116.72C1320.72 116.4 1320.97 115.952 1320.97 115.376C1320.97 114.917 1320.85 114.587 1320.6 114.384C1320.37 114.181 1319.94 114.08 1319.32 114.08H1317.58C1317.31 114.08 1317.07 114.064 1316.84 114.032C1316.55 114.416 1316.41 114.875 1316.41 115.408C1316.41 115.995 1316.57 116.443 1316.89 116.752C1317.21 117.061 1317.74 117.216 1318.49 117.216Z" fill="white"/>
<path d="M524.352 129V84.2H539.648C544.896 84.2 549.205 85.1387 552.576 87.016C555.989 88.8507 558.507 91.4533 560.128 94.824C561.792 98.152 562.624 102.077 562.624 106.6C562.624 111.123 561.792 115.069 560.128 118.44C558.507 121.768 555.989 124.371 552.576 126.248C549.205 128.083 544.896 129 539.648 129H524.352ZM532.544 121.96H539.264C543.019 121.96 545.984 121.363 548.16 120.168C550.336 118.931 551.893 117.181 552.832 114.92C553.771 112.616 554.24 109.843 554.24 106.6C554.24 103.4 553.771 100.648 552.832 98.344C551.893 96.04 550.336 94.2693 548.16 93.032C545.984 91.7947 543.019 91.176 539.264 91.176H532.544V121.96ZM585.276 129.768C582.076 129.768 579.239 129.085 576.764 127.72C574.289 126.355 572.348 124.435 570.94 121.96C569.532 119.485 568.828 116.627 568.828 113.384C568.828 110.099 569.511 107.176 570.876 104.616C572.284 102.056 574.204 100.072 576.636 98.664C579.111 97.2133 582.012 96.488 585.34 96.488C588.455 96.488 591.207 97.1707 593.596 98.536C595.985 99.9013 597.841 101.779 599.164 104.168C600.529 106.515 601.212 109.139 601.212 112.04C601.212 112.509 601.191 113 601.148 113.512C601.148 114.024 601.127 114.557 601.084 115.112H576.956C577.127 117.587 577.98 119.528 579.516 120.936C581.095 122.344 582.993 123.048 585.212 123.048C586.876 123.048 588.263 122.685 589.372 121.96C590.524 121.192 591.377 120.211 591.932 119.016H600.252C599.655 121.021 598.652 122.856 597.244 124.52C595.879 126.141 594.172 127.421 592.124 128.36C590.119 129.299 587.836 129.768 585.276 129.768ZM585.34 103.144C583.335 103.144 581.564 103.72 580.028 104.872C578.492 105.981 577.511 107.688 577.084 109.992H592.892C592.764 107.901 591.996 106.237 590.588 105C589.18 103.763 587.431 103.144 585.34 103.144ZM619.238 129.768C616.507 129.768 614.267 129.341 612.518 128.488C610.769 127.592 609.467 126.419 608.614 124.968C607.761 123.517 607.334 121.917 607.334 120.168C607.334 117.224 608.486 114.835 610.79 113C613.094 111.165 616.55 110.248 621.158 110.248H629.222V109.48C629.222 107.304 628.603 105.704 627.366 104.68C626.129 103.656 624.593 103.144 622.758 103.144C621.094 103.144 619.643 103.549 618.406 104.36C617.169 105.128 616.401 106.28 616.102 107.816H608.102C608.315 105.512 609.083 103.507 610.406 101.8C611.771 100.093 613.521 98.792 615.654 97.896C617.787 96.9573 620.177 96.488 622.822 96.488C627.345 96.488 630.907 97.6187 633.51 99.88C636.113 102.141 637.414 105.341 637.414 109.48V129H630.438L629.67 123.88C628.731 125.587 627.409 126.995 625.702 128.104C624.038 129.213 621.883 129.768 619.238 129.768ZM621.094 123.368C623.441 123.368 625.254 122.6 626.534 121.064C627.857 119.528 628.689 117.629 629.03 115.368H622.054C619.878 115.368 618.321 115.773 617.382 116.584C616.443 117.352 615.974 118.312 615.974 119.464C615.974 120.701 616.443 121.661 617.382 122.344C618.321 123.027 619.558 123.368 621.094 123.368ZM645.423 129V82.92H653.615V129H645.423ZM677.602 129.768C674.402 129.768 671.565 129.085 669.09 127.72C666.615 126.355 664.674 124.435 663.266 121.96C661.858 119.485 661.154 116.627 661.154 113.384C661.154 110.099 661.837 107.176 663.202 104.616C664.61 102.056 666.53 100.072 668.962 98.664C671.437 97.2133 674.338 96.488 677.666 96.488C680.781 96.488 683.533 97.1707 685.922 98.536C688.311 99.9013 690.167 101.779 691.49 104.168C692.855 106.515 693.538 109.139 693.538 112.04C693.538 112.509 693.517 113 693.474 113.512C693.474 114.024 693.453 114.557 693.41 115.112H669.282C669.453 117.587 670.306 119.528 671.842 120.936C673.421 122.344 675.319 123.048 677.538 123.048C679.202 123.048 680.589 122.685 681.698 121.96C682.85 121.192 683.703 120.211 684.258 119.016H692.578C691.981 121.021 690.978 122.856 689.57 124.52C688.205 126.141 686.498 127.421 684.45 128.36C682.445 129.299 680.162 129.768 677.602 129.768ZM677.666 103.144C675.661 103.144 673.89 103.72 672.354 104.872C670.818 105.981 669.837 107.688 669.41 109.992H685.218C685.09 107.901 684.322 106.237 682.914 105C681.506 103.763 679.757 103.144 677.666 103.144ZM700.62 129V97.256H707.916L708.684 103.208C709.836 101.16 711.393 99.5387 713.356 98.344C715.361 97.1067 717.708 96.488 720.396 96.488V105.128H718.092C716.3 105.128 714.7 105.405 713.292 105.96C711.884 106.515 710.775 107.475 709.964 108.84C709.196 110.205 708.812 112.104 708.812 114.536V129H700.62ZM724.139 129V122.408L740.331 104.04H724.331V97.256H749.675V103.848L733.227 122.216H749.995V129H724.139ZM760.524 129.448C759.031 129.448 757.793 128.979 756.812 128.04C755.873 127.101 755.404 125.971 755.404 124.648C755.404 123.283 755.873 122.131 756.812 121.192C757.793 120.253 759.031 119.784 760.524 119.784C762.017 119.784 763.233 120.253 764.172 121.192C765.153 122.131 765.644 123.283 765.644 124.648C765.644 125.971 765.153 127.101 764.172 128.04C763.233 128.979 762.017 129.448 760.524 129.448Z" fill="#F86338"/>
</svg>
